<svg width="22" height="22" viewBox="0 0 22 22" fill="none" xmlns="http://www.w3.org/2000/svg">
<path d="M21 10.5667C21 15.8499 16.5222 20.1334 11 20.1334C10.3507 20.1343 9.70324 20.0742 9.06542 19.9545C8.60633 19.8682 8.37678 19.8251 8.21653 19.8496C8.05627 19.8741 7.82918 19.9948 7.37499 20.2364C6.09014 20.9197 4.59195 21.161 3.15111 20.893C3.69874 20.2194 4.07275 19.4112 4.23778 18.5448C4.33778 18.0148 4.09 17.5 3.71889 17.1231C2.03333 15.4115 1 13.1051 1 10.5667C1 5.28357 5.47778 1 11 1C16.5222 1 21 5.28357 21 10.5667Z" stroke="#718096" stroke-width="1.5" stroke-linejoin="round"/>
</svg>
