<svg width="23" height="21" viewBox="0 0 23 21" fill="none" xmlns="http://www.w3.org/2000/svg">
<path d="M14.1 8.00003H20.5C21.0304 8.00003 21.5391 8.21074 21.9142 8.58581C22.2893 8.96089 22.5 9.46959 22.5 10V12.104C22.5003 12.3654 22.4493 12.6243 22.35 12.866L19.255 20.381C19.1795 20.5642 19.0513 20.7209 18.8866 20.8311C18.7219 20.9413 18.5282 21.0001 18.33 21H1.5C1.23478 21 0.98043 20.8947 0.792893 20.7071C0.605357 20.5196 0.5 20.2652 0.5 20V10C0.5 9.73481 0.605357 9.48046 0.792893 9.29292C0.98043 9.10538 1.23478 9.00003 1.5 9.00003H4.982C5.1421 9.00007 5.29986 8.96167 5.44203 8.88806C5.5842 8.81445 5.70662 8.70778 5.799 8.57703L11.252 0.850026C11.3209 0.752339 11.4226 0.682586 11.5385 0.653416C11.6545 0.624246 11.777 0.637589 11.884 0.691026L13.698 1.59803C14.2085 1.85319 14.6163 2.27534 14.8537 2.79434C15.0911 3.31334 15.1438 3.89795 15.003 4.45103L14.1 8.00003ZM6.5 10.588V19H17.66L20.5 12.104V10H14.1C13.7954 9.99998 13.4948 9.93036 13.2212 9.79648C12.9476 9.6626 12.7082 9.468 12.5213 9.22751C12.3343 8.98703 12.2048 8.70702 12.1425 8.40885C12.0803 8.11068 12.0869 7.80223 12.162 7.50703L13.065 3.95903C13.0933 3.84835 13.0828 3.73134 13.0353 3.62745C12.9878 3.52357 12.9062 3.43907 12.804 3.38803L12.143 3.05803L7.433 9.73003C7.183 10.084 6.863 10.374 6.5 10.588ZM4.5 11H2.5V19H4.5V11Z" fill="#718096"/>
</svg>
