<svg width="13" height="16" viewBox="0 0 13 16" fill="none" xmlns="http://www.w3.org/2000/svg">
<path d="M0.494 0.938676L12.802 7.70801C12.8543 7.73678 12.8978 7.77906 12.9282 7.83042C12.9586 7.88178 12.9746 7.94035 12.9746 8.00001C12.9746 8.05967 12.9586 8.11824 12.9282 8.1696C12.8978 8.22096 12.8543 8.26323 12.802 8.29201L0.494 15.0613C0.443249 15.0893 0.386099 15.1035 0.328182 15.1026C0.270265 15.1017 0.213582 15.0857 0.163718 15.0562C0.113854 15.0268 0.072531 14.9848 0.0438223 14.9345C0.0151136 14.8842 9.91698e-06 14.8273 0 14.7693V1.23068C9.91698e-06 1.17275 0.0151136 1.11583 0.0438223 1.06552C0.072531 1.01521 0.113854 0.973255 0.163718 0.943781C0.213582 0.914307 0.270265 0.898335 0.328182 0.89744C0.386099 0.896545 0.443249 0.910757 0.494 0.938676ZM1.33333 8.66668V13.078L10.5667 8.00001L1.33333 2.92201V7.33334H4.66667V8.66668H1.33333Z" fill="#A0AEC0"/>
</svg>
